<svg xmlns="http://www.w3.org/2000/svg" viewBox="0 0 1200 630" fill="none">
  <rect width="1200" height="630" fill="#0F172A"/>
  <rect x="40" y="40" width="1120" height="550" rx="16" fill="#1e2639" stroke="#0891B2" stroke-opacity="0.15"/>
  <text x="100" y="100" fill="#0891B2" font-family="sans-serif" font-size="28" font-weight="700">Tool Comparison</text>
  <text x="100" y="135" fill="rgba(248,250,252,0.5)" font-family="sans-serif" font-size="16">Feature analysis and scoring breakdown</text>
  <rect x="80" y="180" width="320" height="180" rx="12" fill="#0F172A" stroke="#0891B2" stroke-opacity="0.2"/>
  <rect x="440" y="180" width="320" height="180" rx="12" fill="#0F172A" stroke="#06B6D4" stroke-opacity="0.2"/>
  <rect x="800" y="180" width="320" height="180" rx="12" fill="#0F172A" stroke="#F8FAFC" stroke-opacity="0.1"/>
  <rect x="100" y="220" width="180" height="12" rx="4" fill="#0891B2" opacity="0.8"/>
  <rect x="100" y="250" width="140" height="12" rx="4" fill="#0891B2" opacity="0.5"/>
  <rect x="100" y="280" width="200" height="12" rx="4" fill="#0891B2" opacity="0.65"/>
  <rect x="460" y="220" width="160" height="12" rx="4" fill="#06B6D4" opacity="0.7"/>
  <rect x="460" y="250" width="200" height="12" rx="4" fill="#06B6D4" opacity="0.5"/>
  <rect x="460" y="280" width="120" height="12" rx="4" fill="#06B6D4" opacity="0.6"/>
  <rect x="820" y="220" width="190" height="12" rx="4" fill="#F8FAFC" opacity="0.2"/>
  <rect x="820" y="250" width="150" height="12" rx="4" fill="#F8FAFC" opacity="0.15"/>
  <rect x="820" y="280" width="170" height="12" rx="4" fill="#F8FAFC" opacity="0.18"/>
  <rect x="80" y="400" width="1040" height="120" rx="10" fill="#0F172A"/>
  <text x="100" y="440" fill="#F8FAFC" font-family="sans-serif" font-size="15" font-weight="600">Key Differentiators</text>
  <rect x="100" y="460" width="280" height="8" rx="3" fill="#0891B2" opacity="0.4"/>
  <rect x="100" y="480" width="220" height="8" rx="3" fill="#06B6D4" opacity="0.3"/>
  <text x="1060" y="560" text-anchor="end" fill="rgba(248,250,252,0.5)" font-family="monospace" font-size="11" opacity="0.5">mopsreport.com</text>
</svg>